<?xml version="1.0" encoding="UTF-8" standalone="no"?>
<!-- Generator: Adobe Illustrator 27.5.0, SVG Export Plug-In . SVG Version: 6.00 Build 0)  -->

<svg
   height="512"
   width="512"
   version="1.1"
   id="Reference"
   x="0px"
   y="0px"
   viewBox="0 0 20 20"
   xml:space="preserve"
   sodipodi:docname="nyt-connections.svg"
   inkscape:version="1.2.2 (b0a8486541, 2022-12-01)"
   xmlns:inkscape="http://www.inkscape.org/namespaces/inkscape"
   xmlns:sodipodi="http://sodipodi.sourceforge.net/DTD/sodipodi-0.dtd"
   xmlns="http://www.w3.org/2000/svg"
   xmlns:svg="http://www.w3.org/2000/svg"><defs
   id="defs29" /><sodipodi:namedview
   id="namedview27"
   pagecolor="#ffffff"
   bordercolor="#000000"
   borderopacity="0.25"
   inkscape:showpageshadow="2"
   inkscape:pageopacity="0.0"
   inkscape:pagecheckerboard="0"
   inkscape:deskcolor="#d1d1d1"
   showgrid="false"
   inkscape:zoom="1.4142136"
   inkscape:cx="188.0904"
   inkscape:cy="253.85133"
   inkscape:window-width="1920"
   inkscape:window-height="1043"
   inkscape:window-x="0"
   inkscape:window-y="0"
   inkscape:window-maximized="1"
   inkscape:current-layer="Reference" />
<style
   type="text/css"
   id="style2">
	.st0{fill:#BC70C4;}
	.st1{fill:#FFFFFF;}
</style>
<path
   class="st0"
   d="M 19.062115,2.5581394 V 4.8837208 H 15.342678 V 1.0465117 h 2.208416 c 0.929859,0 1.511021,0.6976742 1.511021,1.5116277 z"
   id="path4"
   style="stroke-width:1.16256" />
<rect
   x="1.1623241"
   y="10.465116"
   class="st0"
   width="3.7194369"
   height="4.0697675"
   id="rect6"
   style="stroke-width:1.16256" />
<rect
   x="10.577147"
   y="10.465116"
   class="st0"
   width="8.4849663"
   height="3.9534886"
   id="rect8"
   style="stroke-width:1.16256" />
<path
   d="M 17.551094,0 H 2.5571129 C 1.1623241,0 0,1.1627907 0,2.5581394 V 17.55814 C 0,18.953487 1.1623241,20 2.5571129,20 H 17.551094 c 1.394789,0 2.44088,-1.162791 2.44088,-2.44186 V 2.4418604 C 20.108206,1.1627907 18.945883,0 17.551094,0 Z m -6.973945,1.0465117 h 3.719437 v 3.72093 h -3.719437 c 0,0 0,-3.72093 0,-3.72093 z M 1.1623241,2.4418604 c 0,-0.8139535 0.6973944,-1.51162788 1.5110213,-1.51162788 H 9.6472899 V 4.6511627 H 1.1623241 c 0,0.116279 0,-2.2093023 0,-2.2093023 z m 0,3.2558139 H 14.412818 V 9.4186044 H 1.1623241 Z m 8.4849658,4.7674427 v 3.720929 H 5.8116205 v -3.720929 c 0,0 3.8356694,0 3.8356694,0 z m -4.7655287,8.48837 H 2.5571129 c -0.8136267,0 -1.5110212,-0.697673 -1.5110212,-1.511627 v -2.209302 h 3.719437 v 3.720929 z m 0,-4.651162 H 1.1623241 v -3.72093 H 4.8817612 Z M 19.062115,17.44186 c 0,0.813954 -0.697394,1.511627 -1.511021,1.511627 H 5.8116205 V 15.232558 H 19.062115 Z m 0,-3.139535 h -8.484966 v -3.72093 h 8.484966 z m 0,-4.7674415 H 15.342678 V 5.6976743 h 3.719437 z m 0,-4.7674418 h -3.719437 v -3.72093 h 2.208416 c 0.813627,0 1.511021,0.6976742 1.511021,1.5116277 z"
   id="path10"
   style="stroke-width:1.16256" />
<path
   class="st1"
   d="m 4.8817612,15.232558 v 3.720929 H 2.5571129 c -0.8136267,0 -1.5110212,-0.697673 -1.5110212,-1.511627 v -2.209302 z"
   id="path12"
   style="stroke-width:1.16256" />
<rect
   x="5.8116212"
   y="10.465116"
   class="st1"
   width="3.8355241"
   height="3.7209301"
   id="rect14"
   style="stroke-width:1.18057" />
<rect
   x="15.342677"
   y="5.6976748"
   class="st1"
   width="3.7194369"
   height="3.8372538"
   id="rect16"
   style="stroke-width:1.18059" />
<rect
   x="10.577147"
   y="1.0465115"
   class="st1"
   width="3.7194369"
   height="3.7209301"
   id="rect18"
   style="stroke-width:1.16256" />
<path
   class="st0"
   d="m 19.062115,15.232558 v 2.209302 c 0,0.813954 -0.697394,1.511627 -1.511021,1.511627 H 5.8116205 v -3.720929 z"
   id="path20"
   style="stroke-width:1.16256" />
<rect
   x="1.1623241"
   y="5.6976748"
   class="st0"
   width="13.250494"
   height="3.7209301"
   id="rect22"
   style="stroke-width:1.16256" />
<path
   class="st0"
   d="m 9.6472899,1.0465117 v 3.72093 H 1.1623241 V 2.4418604 c 0,-0.8139535 0.6973944,-1.51162788 1.5110213,-1.51162788 h 6.9739445 z"
   id="path24"
   style="stroke-width:1.16256" />
</svg>
